<svg id="Capa_1" enable-background="new 0 0 512 512" height="512" viewBox="0 0 512 512" width="512" xmlns="http://www.w3.org/2000/svg"><g><path d="m499.795 277.157c-15.702-23.458-40.842-34.515-65.543-33.388-3.575.163-6.85-2.321-7.721-5.793-9.89-39.435-45.494-68.661-87.996-68.661-8.331 0-16.375 1.176-24.03 3.298-3.278.909-6.7-.228-8.733-2.955-22.576-30.272-58.661-49.878-99.329-49.878-60.541 0-109.715 62.962-117.208 100.428-.747 3.733-7.278 12.788-11.077 13.032-23.438 1.501-41.163 10.488-56.688 31.928-20.425 28.207-24.888 58.383-4.561 86.66 16.701 23.233 40.333 33.231 65.698 33.231l354.996 7.161c22.843 0 45.688-10.469 60.716-31.406 17.647-24.586 18.31-58.508 1.476-83.657z" fill="#7ad7ee"/><g fill="#fff"><path d="m140.784 289.232c-9.989-3.684-19.277-7.707-21.833-8.828-2.104-1.596-3.112-4.104-2.725-6.813.25-1.709 1.467-5.877 7.458-7.683 11.964-3.612 22.993 5.095 23.3 5.337 3.499 2.902 8.683 2.443 11.602-1.032 2.935-3.491 2.483-8.699-1.008-11.634-.726-.605-17.866-14.73-38.658-8.481-10.312 3.104-17.6 11.207-19.035 21.139-1.33 9.288 2.685 18.221 10.497 23.316.363.234.742.443 1.145.621.451.202 11.311 5.039 23.55 9.554 8.159 3.007 12.319 7.603 11.424 12.609-.903 5.095-6.934 10.36-15.447 10.36-8.32 0-16.35-3.378-21.486-9.03-3.064-3.378-8.288-3.628-11.658-.564-3.378 3.056-3.628 8.28-.564 11.658 8.199 9.046 20.801 14.448 33.708 14.448 15.633 0 29.266-10.304 31.709-23.969 1.853-10.384-2.952-23.985-21.979-31.008z"/><path d="m378.95 289.232c-9.989-3.684-19.269-7.707-21.833-8.828-2.096-1.596-3.112-4.104-2.717-6.813.242-1.709 1.459-5.877 7.449-7.683 12.005-3.604 22.993 5.095 23.3 5.337 3.475 2.894 8.667 2.443 11.602-1.032 2.935-3.491 2.483-8.699-1.008-11.634-.718-.605-17.858-14.73-38.658-8.481-10.312 3.104-17.608 11.207-19.035 21.147-1.33 9.288 2.693 18.213 10.505 23.308.363.234.742.443 1.145.621.451.202 11.311 5.039 23.542 9.554 8.159 3.007 12.327 7.603 11.432 12.609-.911 5.095-6.942 10.36-15.455 10.36-8.32 0-16.35-3.378-21.486-9.03-3.056-3.378-8.28-3.628-11.658-.564-3.378 3.056-3.628 8.28-.564 11.658 8.199 9.046 20.801 14.448 33.708 14.448 15.641 0 29.266-10.304 31.709-23.969 1.854-10.392-2.943-23.985-21.978-31.008z"/><path d="m310.695 273.43c-4.325 0-7.761 3.352-8.12 7.584-4.728-2.71-10.125-4.383-15.954-4.383-17.834 0-32.338 14.504-32.338 32.33s14.504 32.33 32.338 32.33c5.829 0 11.226-1.672 15.954-4.383.359 4.231 3.795 7.584 8.12 7.584 4.563 0 8.256-3.693 8.256-8.256v-54.549c0-4.564-3.692-8.257-8.256-8.257zm-24.073 51.349c-8.723 0-15.826-7.095-15.826-15.818s7.103-15.818 15.826-15.818 15.818 7.095 15.818 15.818-7.095 15.818-15.818 15.818z"/><path d="m232.556 273.43c-4.325 0-7.761 3.352-8.12 7.584-4.727-2.71-10.125-4.383-15.954-4.383-17.826 0-32.33 14.504-32.33 32.33s14.504 32.33 32.33 32.33c5.829 0 11.226-1.672 15.954-4.383.359 4.231 3.795 7.584 8.12 7.584 4.563 0 8.256-3.693 8.256-8.256v-54.549c0-4.564-3.693-8.257-8.256-8.257zm-24.074 51.349c-8.723 0-15.818-7.095-15.818-15.818s7.095-15.818 15.818-15.818 15.818 7.095 15.818 15.818-7.094 15.818-15.818 15.818z"/></g><path d="m26.907 345.309c-14.986-22.73-14.114-51.917 1.858-73.965 11.971-16.525 29.628-26.31 49.699-27.551 11.494-.711 20.559-9.377 22.746-20.683 8.81-45.546 45.792-79.744 90.783-85.844 8.174-1.108 14.45-7.742 14.45-15.991v-1.494c-60.541 0-110.815 43.481-121.579 100.898-.702 3.742-3.8 6.403-7.599 6.646-23.44 1.501-46.358 12.909-61.882 34.353-20.421 28.207-20.529 67.417-.204 95.693 16.7 23.233 42.064 34.849 67.428 34.849h354.996c0-9.119-7.392-16.511-16.511-16.511h-338.485c-22.515-.001-42.997-11.133-55.7-30.4z" fill="#4bc3ef"/></g></svg>